#!OML:ASF H:\GeneralSubjects\Female5\Project 1\Capture day 1\Session 1\Female5.ASF
:FULLY-SPECIFIED
:DEGREES
378
root 28.0346 15.5648 0.299963 172.166 -260.15 160.722
lowerback 13.08 4.21552 6.81198
upperback -11.4039 7.20891 -3.07029
thorax -19.568 2.03096 -9.59398
lowerneck -16.4841 -0.103426 4.65359
upperneck 32.1745 0.292073 -3.09074
head 13.641 0.603032 -1.91366
rclavicle 7.08667e-014 -2.46493e-014
rhumerus -51.6434 8.18716 -85.3369
rradius 35.8674
rwrist -12.6023
rhand -25.6944 -18.2227
rfingers 7.12502
rthumb 0.840923 -48.2008
lclavicle 7.08667e-014 -2.46493e-014
lhumerus -52.7635 -9.37974 74.4875
lradius 33.9705
lwrist 0.615962
lhand -27.353 30.8755
lfingers 7.12502
lthumb -0.760991 60.8539
rfemur 1.73037 5.95389 34.9575
rtibia 10.1086
rfoot -17.303 -3.96188
rtoes -2.08517
lfemur -42.5065 -21.2896 -8.02351
ltibia 11.7508
lfoot -33.2707 4.18419
ltoes -19.6528
379
root 27.6973 15.6113 0.310831 171.165 -260.859 159.559
lowerback 13.4004 4.07602 7.03011
upperback -11.3453 7.07824 -3.101
thorax -19.7124 1.92026 -9.76046
lowerneck -16.536 -0.263184 4.55814
upperneck 31.9056 0.129022 -3.29747
head 13.526 0.479546 -2.00287
rclavicle 2.97183e-014 1.35174e-014
rhumerus -51.5481 8.00386 -84.9727
rradius 35.5763
rwrist -12.3547
rhand -25.5869 -18.0147
rfingers 7.12502
rthumb 0.944734 -47.9923
lclavicle 2.97183e-014 1.35174e-014
lhumerus -52.5408 -9.57753 74.4726
lradius 33.4341
lwrist 0.950776
lhand -27.0995 30.9571
lfingers 7.12502
lthumb -0.516191 60.9362
rfemur 0.405082 5.78719 35.1534
rtibia 9.75935
rfoot -17.2097 -4.48606
rtoes -1.18841
lfemur -43.1337 -19.8923 -8.64003
ltibia 12.8141
lfoot -32.606 4.09001
ltoes -20.4629
380
root 27.3735 15.6596 0.321139 169.872 -261.617 158.17
lowerback 13.6286 3.91773 7.14061
upperback -11.536 6.8972 -3.16246
thorax -19.5737 1.83599 -9.77649
lowerneck -16.5989 -0.407969 4.54621
upperneck 31.7478 -0.0429483 -3.46587
head 13.4615 0.37226 -2.09377
rclavicle 3.19049e-014 1.82882e-014
rhumerus -51.5965 7.69308 -84.551
rradius 35.2903
rwrist -12.1158
rhand -25.5579 -17.9228
rfingers 7.12502
rthumb 0.972719 -47.9003
lclavicle 3.19049e-014 1.82882e-014
lhumerus -52.2359 -9.81196 74.4183
lradius 32.7768
lwrist 0.99591
lhand -26.7935 31.1415
lfingers 7.12502
lthumb -0.220667 61.1212
rfemur -0.871358 5.55729 35.2964
rtibia 9.50709
rfoot -16.9513 -5.08974
rtoes -0.595916
lfemur -43.6303 -17.34 -10.5218
ltibia 15.5973
lfoot -30.4995 4.37586
ltoes -20.6052
381
root 27.064 15.7088 0.330763 168.298 -262.412 156.583
lowerback 13.7955 3.72996 7.21665
upperback -11.4732 6.66037 -3.16486
thorax -19.6452 1.71144 -9.77492
lowerneck -16.6762 -0.526751 4.61081
upperneck 31.719 -0.192889 -3.6286
head 13.4563 0.289832 -2.19411
rclavicle 5.03919e-014 7.95139e-016
rhumerus -51.7827 7.32023 -84.0735
rradius 34.9877
rwrist -11.9831
rhand -25.6779 -17.9664
rfingers 7.12502
rthumb 0.856843 -47.9444
lclavicle 5.03919e-014 7.95139e-016
lhumerus -51.8392 -9.96687 74.3147
lradius 31.9813
lwrist 0.792941
lhand -26.5161 31.415
lfingers 7.12502
lthumb 0.0472976 61.3947
rfemur -2.05483 5.24206 35.3675
rtibia 9.30562
rfoot -16.4997 -5.73988
rtoes -0.277832
lfemur -44.0684 -14.5258 -12.9175
ltibia 19.9013
lfoot -28.0169 3.9602
ltoes -20.522
382
root 26.768 15.7589 0.338969 166.519 -263.221 154.876
lowerback 13.8949 3.52817 7.15963
upperback -11.3983 6.37286 -3.12625
thorax -19.6878 1.59154 -9.62617
lowerneck -16.7693 -0.621026 4.73019
upperneck 31.8034 -0.312481 -3.80129
head 13.5042 0.230499 -2.30541
rclavicle -1.55052e-014 -1.98785e-014
rhumerus -52.1002 6.88358 -83.5324
rradius 34.6684
rwrist -11.9729
rhand -25.957 -18.1589
rfingers 7.12502
rthumb 0.58729 -48.1378
lclavicle -1.55052e-014 -1.98785e-014
lhumerus -51.3316 -9.9686 74.1482
lradius 31.0515
lwrist 0.356217
lhand -26.2709 31.8177
lfingers 7.12502
lthumb 0.284134 61.7973
rfemur -3.11689 4.84321 35.3485
rtibia 9.10114
rfoot -15.8471 -6.41087
rtoes -0.154815
lfemur -44.3376 -12.0589 -15.2579
ltibia 25.2716
lfoot -26.1418 2.62527
ltoes -20.6687
383
root 26.4838 15.8098 0.345003 164.469 -264.008 152.971
lowerback 13.931 3.31893 6.97321
upperback -11.3148 6.04774 -3.03161
thorax -19.7039 1.48263 -9.31919
lowerneck -16.8526 -0.693245 4.85252
upperneck 31.9534 -0.394705 -3.97175
head 13.5801 0.191285 -2.41193
rclavicle -2.59414e-014 -2.3059e-014
rhumerus -52.5508 6.39678 -82.9205
rradius 34.3543
rwrist -12.0447
rhand -26.3559 -18.4665
rfingers 7.12502
rthumb 0.202004 -48.4462
lclavicle -2.59414e-014 -2.3059e-014
lhumerus -50.7174 -9.75999 73.9169
lradius 29.9929
lwrist -0.385825
lhand -26.0344 32.2882
lfingers 7.12502
lthumb 0.512496 62.2673
rfemur -4.0552 4.36895 35.2551
rtibia 8.85872
rfoot -15.014 -7.07426
rtoes -0.194083
lfemur -44.2522 -10.0976 -17.2896
ltibia 31.1289
lfoot -25.3785 0.557837
ltoes -21.2193
384
root 26.2095 15.8609 0.347982 162.236 -264.748 150.93
lowerback 13.9296 3.09999 6.7328
upperback -10.9871 5.6973 -2.85564
thorax -19.9459 1.35079 -8.96892
lowerneck -16.8924 -0.742822 4.94194
upperneck 32.1134 -0.436243 -4.11813
head 13.6537 0.170476 -2.4966
rclavicle 5.4467e-014 -3.18055e-015
rhumerus -53.1359 5.92217 -82.2783
rradius 34.0731
rwrist -12.1527
rhand -26.7701 -18.8242
rfingers 7.12502
rthumb -0.198085 -48.8038
lclavicle 5.4467e-014 -3.18055e-015
lhumerus -50.02 -9.32871 73.6241
lradius 28.9247
lwrist -1.34337
lhand -25.6338 32.8847
lfingers 7.12502
lthumb 0.899436 62.8626
rfemur -4.89164 3.82066 35.088
rtibia 8.57793
rfoot -14.0646 -7.68147
rtoes -0.269745
lfemur -43.669 -8.54289 -19.0101
ltibia 36.9469
lfoot -25.5042 -1.08368
ltoes -22.3469
385
root 25.9426 15.9102 0.347249 159.726 -265.408 148.64
lowerback 13.8507 2.8999 6.4071
upperback -10.9048 5.3542 -2.70381
thorax -19.8884 1.26857 -8.49033
lowerneck -16.8951 -0.783357 4.99565
upperneck 32.243 -0.469797 -4.21386
head 13.7072 0.15511 -2.55258
rclavicle 8.99501e-015 -6.36111e-015
rhumerus -53.8393 5.44243 -81.6718
rradius 33.8384
rwrist -12.2271
rhand -27.0728 -19.1719
rfingers 7.12502
rthumb -0.490355 -49.1511
lclavicle 8.99501e-015 -6.36111e-015
lhumerus -49.2429 -8.80635 73.2958
lradius 27.9413
lwrist -2.45171
lhand -25.1288 33.4453
lfingers 7.12502
lthumb 1.38713 63.4205
rfemur -5.67515 3.2184 34.8821
rtibia 8.30978
rfoot -13.0952 -8.19922
rtoes -0.174981
lfemur -42.5435 -7.22423 -20.4538
ltibia 42.3855
lfoot -26.3314 -1.45105
ltoes -24.6323
386
root 25.6807 15.9554 0.342518 156.597 -265.953 145.749
lowerback 13.7441 2.71246 6.10164
upperback -10.8257 5.03629 -2.53089
thorax -19.8062 1.1983 -8.00252
lowerneck -16.8651 -0.807475 5.01188
upperneck 32.3301 -0.479565 -4.27562
head 13.7371 0.148842 -2.58323
rclavicle 7.92157e-014 -2.38542e-015
rhumerus -54.6385 5.06621 -81.1635
rradius 33.6451
rwrist -12.2445
rhand -27.1858 -19.4652
rfingers 7.12502
rthumb -0.599536 -49.4441
lclavicle 7.92157e-014 -2.38542e-015
lhumerus -48.4493 -8.2631 73.013
lradius 27.1422
lwrist -3.60911
lhand -24.6362 33.8496
lfingers 7.12502
lthumb 1.86293 63.8212
rfemur -6.45433 2.58054 34.6954
rtibia 8.11292
rfoot -12.1601 -8.61173
rtoes 0.200667
lfemur -40.8903 -5.99933 -21.6232
ltibia 47.2264
lfoot -27.434 -0.592616
ltoes -27.7275
387
root 25.4221 15.994 0.333291 152.644 -266.36 142.056
lowerback 13.6373 2.54296 5.87078
upperback -10.7489 4.76295 -2.34965
thorax -19.7099 1.13806 -7.56055
lowerneck -16.8284 -0.818269 5.00573
upperneck 32.3964 -0.471964 -4.31363
head 13.7579 0.149746 -2.5971
rclavicle 3.88127e-014 7.95139e-016
rhumerus -55.5004 4.83933 -80.8204
rradius 33.4612
rwrist -12.2096
rhand -27.0846 -19.6701
rfingers 7.12502
rthumb -0.50183 -49.6492
lclavicle 3.88127e-014 7.95139e-016
lhumerus -47.667 -7.854 72.8673
lradius 26.6033
lwrist -4.63619
lhand -24.2578 34.0559
lfingers 7.12502
lthumb 2.22836 64.024
rfemur -7.24836 1.93205 34.5667
rtibia 8.02376
rfoot -11.2833 -8.91376
rtoes 0.874819
lfemur -38.7217 -4.76914 -22.5342
ltibia 51.3078
lfoot -28.2627 0.895389
ltoes -30.9616
